<?xml version="1.0" encoding="iso-8859-1"?>
<!-- Generator: Adobe Illustrator 18.0.0, SVG Export Plug-In . SVG Version: 6.00 Build 0)  -->
<!DOCTYPE svg PUBLIC "-//W3C//DTD SVG 1.1//EN" "http://www.w3.org/Graphics/SVG/1.1/DTD/svg11.dtd">
<svg version="1.1" id="Capa_1" xmlns="http://www.w3.org/2000/svg" xmlns:xlink="http://www.w3.org/1999/xlink" x="0px" y="0px"
	 viewBox="0 0 387.483 387.483" style="enable-background:new 0 0 387.483 387.483;" xml:space="preserve">
<g>
	<path d="M256.847,179.471v-9.887c0-8.116-6.603-14.719-14.719-14.719s-14.719,6.603-14.719,14.719v7.409h-6.554v-7.409
		c0-8.116-6.603-14.719-14.719-14.719s-14.719,6.603-14.719,14.719v7.409h-6.571V16.75c0-9.236-7.514-16.75-16.75-16.75
		s-16.75,7.514-16.75,16.75v161.402c-7.847,2.764-13.496,10.232-13.496,19.012v2.969c-10.133,2.331-17.714,11.418-17.714,22.248
		v36.667c0,10.83,7.582,19.917,17.714,22.248v92.281c0,7.669,6.239,13.908,13.908,13.908h101.679
		c7.669,0,13.908-6.239,13.908-13.908V197.164C267.346,189.545,263.098,182.902,256.847,179.471z M238.41,169.584
		c0-2.05,1.668-3.719,3.719-3.719s3.719,1.668,3.719,3.719v7.409h-7.438V169.584z M202.418,169.584c0-2.05,1.668-3.719,3.719-3.719
		s3.719,1.668,3.719,3.719v7.409h-7.438V169.584z M162.347,176.993v-6.18h11.5v6.18H162.347z M162.347,153.48h11.5v6.333h-11.5
		V153.48z M173.847,142.48h-11.5V36.147h11.5V142.48z M168.097,11c3.17,0,5.75,2.58,5.75,5.75v8.397h-11.5V16.75
		C162.347,13.58,164.927,11,168.097,11z M158.023,187.993h89.151c5.057,0,9.171,4.114,9.171,9.171v160.383H148.852V197.164
		C148.852,192.107,152.966,187.993,158.023,187.993z M131.137,259.047V222.38c0-4.69,2.749-8.739,6.714-10.652v57.971
		C133.886,267.786,131.137,263.737,131.137,259.047z M253.438,376.483H151.759c-1.604,0-2.908-1.304-2.908-2.908v-5.028h107.494
		v5.028C256.346,375.179,255.042,376.483,253.438,376.483z"/>
	<path d="M166.601,211.992h71.996c3.038,0,5.5-2.462,5.5-5.5s-2.462-5.5-5.5-5.5h-71.996c-3.038,0-5.5,2.462-5.5,5.5
		S163.563,211.992,166.601,211.992z"/>
	<path d="M166.601,233.366h71.996c3.038,0,5.5-2.462,5.5-5.5s-2.462-5.5-5.5-5.5h-71.996c-3.038,0-5.5,2.462-5.5,5.5
		S163.563,233.366,166.601,233.366z"/>
	<path d="M166.601,254.74h71.996c3.038,0,5.5-2.462,5.5-5.5s-2.462-5.5-5.5-5.5h-71.996c-3.038,0-5.5,2.462-5.5,5.5
		S163.563,254.74,166.601,254.74z"/>
	<path d="M166.601,276.114h71.996c3.038,0,5.5-2.462,5.5-5.5s-2.462-5.5-5.5-5.5h-71.996c-3.038,0-5.5,2.462-5.5,5.5
		S163.563,276.114,166.601,276.114z"/>
	<path d="M238.597,286.487h-24.749c-3.038,0-5.5,2.462-5.5,5.5s2.462,5.5,5.5,5.5h24.749c3.038,0,5.5-2.462,5.5-5.5
		S241.634,286.487,238.597,286.487z"/>
</g>
<g>
</g>
<g>
</g>
<g>
</g>
<g>
</g>
<g>
</g>
<g>
</g>
<g>
</g>
<g>
</g>
<g>
</g>
<g>
</g>
<g>
</g>
<g>
</g>
<g>
</g>
<g>
</g>
<g>
</g>
</svg>
